<svg width="40" height="40" viewBox="0 0 40 40" fill="none" xmlns="http://www.w3.org/2000/svg">
<path d="M30.7071 10.7071C31.0976 10.3166 31.0976 9.68342 30.7071 9.29289C30.3166 8.90237 29.6834 8.90237 29.2929 9.29289L30.7071 10.7071ZM9.29289 29.2929C8.90237 29.6834 8.90237 30.3166 9.29289 30.7071C9.68342 31.0976 10.3166 31.0976 10.7071 30.7071L9.29289 29.2929ZM10.7071 9.29289C10.3166 8.90237 9.68342 8.90237 9.29289 9.29289C8.90237 9.68342 8.90237 10.3166 9.29289 10.7071L10.7071 9.29289ZM29.2929 30.7071C29.6834 31.0976 30.3166 31.0976 30.7071 30.7071C31.0976 30.3166 31.0976 29.6834 30.7071 29.2929L29.2929 30.7071ZM29.2929 9.29289L9.29289 29.2929L10.7071 30.7071L30.7071 10.7071L29.2929 9.29289ZM9.29289 10.7071L29.2929 30.7071L30.7071 29.2929L10.7071 9.29289L9.29289 10.7071Z" fill="#F2E7E6"/>
</svg>
